<svg width="24" height="21" viewBox="0 0 24 21" fill="none" xmlns="http://www.w3.org/2000/svg">
<path fill-rule="evenodd" clip-rule="evenodd" d="M10.1046 1.5H20.9393C21.3452 1.5 21.7345 1.65804 22.0215 1.93934C22.3084 2.22064 22.4697 2.60218 22.4697 3V18C22.4697 18.3978 22.3084 18.7794 22.0215 19.0607C21.7345 19.342 21.3452 19.5 20.9393 19.5H10.1046C9.88359 19.5 9.66517 19.4531 9.46439 19.3625C9.26362 19.2718 9.08526 19.1396 8.94158 18.975L1.53021 10.5L8.94311 2.025C9.08662 1.86054 9.26474 1.72847 9.46523 1.63785C9.66572 1.54723 9.88385 1.5002 10.1046 1.5ZM20.9393 0C21.7511 0 22.5296 0.316071 23.1036 0.87868C23.6775 1.44129 24 2.20435 24 3V18C24 18.7956 23.6775 19.5587 23.1036 20.1213C22.5296 20.6839 21.7511 21 20.9393 21H10.1046C9.66304 21.0002 9.22664 20.9067 8.82539 20.726C8.42414 20.5452 8.06754 20.2816 7.78006 19.953L0.36869 11.475C0.130781 11.2031 0 10.8567 0 10.4985C0 10.1403 0.130781 9.79391 0.36869 9.522L7.78006 1.05C8.06725 0.720896 8.42373 0.456638 8.82499 0.275387C9.22626 0.0941358 9.66281 0.000188077 10.1046 0H20.9393Z" fill="#5D7DAD"/>
<path fill-rule="evenodd" clip-rule="evenodd" d="M8.92157 6.21888C8.85032 6.28854 8.79378 6.37131 8.75521 6.46243C8.71663 6.55354 8.69678 6.65122 8.69678 6.74988C8.69678 6.84853 8.71663 6.94621 8.75521 7.03733C8.79378 7.12844 8.85032 7.21121 8.92157 7.28088L16.5732 14.7809C16.7169 14.9215 16.9117 15.0004 17.1147 15.0003C17.3178 15.0002 17.5124 14.921 17.6559 14.7801C17.7994 14.6393 17.8799 14.4484 17.8798 14.2493C17.8796 14.0503 17.7988 13.8595 17.6551 13.7189L10.0035 6.21888C9.93244 6.14903 9.848 6.09362 9.75504 6.05581C9.66208 6.018 9.56242 5.99854 9.46178 5.99854C9.36113 5.99854 9.26148 6.018 9.16852 6.05581C9.07556 6.09362 8.99112 6.14903 8.92004 6.21888H8.92157Z" fill="#5D7DAD"/>
<path fill-rule="evenodd" clip-rule="evenodd" d="M17.6552 6.21959C17.7264 6.28926 17.783 6.37202 17.8215 6.46314C17.8601 6.55426 17.88 6.65194 17.88 6.75059C17.88 6.84924 17.8601 6.94692 17.8215 7.03804C17.783 7.12916 17.7264 7.21192 17.6552 7.28159L10.0035 14.7816C9.85987 14.9224 9.665 15.0015 9.46181 15.0015C9.25862 15.0015 9.06375 14.9224 8.92007 14.7816C8.7764 14.6408 8.69568 14.4498 8.69568 14.2506C8.69568 14.0514 8.7764 13.8604 8.92007 13.7196L16.5717 6.21959C16.7152 6.07899 16.9098 6 17.1127 6C17.3156 6 17.5102 6.07899 17.6537 6.21959H17.6552Z" fill="#5D7DAD"/>
</svg>
