<svg width="30" height="30" viewBox="0 0 30 30" fill="none" xmlns="http://www.w3.org/2000/svg">
<path d="M22.6129 10.869C22.3646 10.3076 22.0067 9.79882 21.5591 9.3712C21.1111 8.94231 20.583 8.60147 20.0033 8.36723C19.4023 8.12337 18.7577 7.99855 18.1068 8.00001C17.1938 8.00001 16.3029 8.24422 15.5288 8.70551C15.3435 8.81585 15.1676 8.93705 15.0009 9.06911C14.8342 8.93705 14.6583 8.81585 14.4731 8.70551C13.6989 8.24422 12.8081 8.00001 11.895 8.00001C11.2375 8.00001 10.6004 8.12302 9.99849 8.36723C9.41694 8.6024 8.89281 8.94067 8.44276 9.3712C7.99455 9.79834 7.63651 10.3072 7.38893 10.869C7.1315 11.4533 7 12.0738 7 12.7124C7 13.3147 7.12594 13.9424 7.37597 14.581C7.58525 15.1146 7.88529 15.6682 8.26866 16.2272C8.87614 17.1117 9.71142 18.0343 10.7486 18.9695C12.4673 20.5198 14.1693 21.5907 14.2416 21.6341L14.6805 21.9091C14.875 22.0303 15.125 22.0303 15.3195 21.9091L15.7584 21.6341C15.8306 21.5889 17.5308 20.5198 19.2514 18.9695C20.2886 18.0343 21.1238 17.1117 21.7313 16.2272C22.1147 15.6682 22.4166 15.1146 22.624 14.581C22.874 13.9424 23 13.3147 23 12.7124C23.0018 12.0738 22.8703 11.4533 22.6129 10.869Z" fill="#FDFDFD"/>
<line x1="7.35355" y1="6.64645" x2="21.4957" y2="20.7886" stroke="#F4F4F4"/>
</svg>
