<svg width="65" height="60" viewBox="0 0 65 60" fill="none" xmlns="http://www.w3.org/2000/svg">
<path d="M10.5625 56.25H14.625V46.875C14.6282 44.3895 15.6993 42.0067 17.6033 40.2492C19.5072 38.4917 22.0886 37.503 24.7812 37.5H36.9688C39.6614 37.503 42.2428 38.4917 44.1467 40.2492C46.0507 42.0067 47.1218 44.3895 47.125 46.875V56.25H51.1875V46.875C51.1832 43.3953 49.6838 40.0592 47.0182 37.5986C44.3526 35.1381 40.7385 33.754 36.9688 33.75H24.7812C21.0115 33.754 17.3974 35.1381 14.7318 37.5986C12.0662 40.0592 10.5668 43.3953 10.5625 46.875V56.25Z" fill="#632EBA"/>
<path d="M30.875 7.5C32.8837 7.5 34.8473 8.04983 36.5175 9.07997C38.1877 10.1101 39.4895 11.5743 40.2582 13.2873C41.0269 15.0004 41.228 16.8854 40.8361 18.704C40.4442 20.5225 39.4769 22.193 38.0566 23.5041C36.6362 24.8152 34.8265 25.7081 32.8564 26.0699C30.8863 26.4316 28.8442 26.2459 26.9884 25.5364C25.1326 24.8268 23.5464 23.6252 22.4304 22.0835C21.3144 20.5418 20.7188 18.7292 20.7188 16.875C20.7188 14.3886 21.7888 12.004 23.6935 10.2459C25.5981 8.48772 28.1814 7.5 30.875 7.5ZM30.875 3.75C28.0628 3.75 25.3138 4.51977 22.9755 5.96196C20.6372 7.40416 18.8148 9.454 17.7386 11.8523C16.6624 14.2506 16.3808 16.8896 16.9295 19.4356C17.4781 21.9816 18.8323 24.3202 20.8208 26.1558C22.8094 27.9913 25.3429 29.2414 28.1011 29.7478C30.8592 30.2542 33.7182 29.9943 36.3163 29.0009C38.9144 28.0075 41.1351 26.3253 42.6975 24.1669C44.2598 22.0085 45.0938 19.4709 45.0938 16.875C45.0938 13.394 43.5957 10.0556 40.9292 7.59422C38.2626 5.13281 34.6461 3.75 30.875 3.75Z" fill="#632EBA"/>
</svg>
