<svg width="36" height="36" viewBox="0 0 36 36" fill="none" xmlns="http://www.w3.org/2000/svg">
<path fill-rule="evenodd" clip-rule="evenodd" d="M12.4615 0C12.0943 0 11.7421 0.145879 11.4825 0.405544C11.2228 0.66521 11.0769 1.01739 11.0769 1.38462C11.0769 1.75184 11.2228 2.10402 11.4825 2.36369C11.7421 2.62335 12.0943 2.76923 12.4615 2.76923H33.2308V33.2308H12.4615C12.0943 33.2308 11.7421 33.3767 11.4825 33.6363C11.2228 33.896 11.0769 34.2482 11.0769 34.6154C11.0769 34.9826 11.2228 35.3348 11.4825 35.5945C11.7421 35.8541 12.0943 36 12.4615 36H33.2308C33.9652 36 34.6696 35.7082 35.1889 35.1889C35.7082 34.6696 36 33.9652 36 33.2308V2.76923C36 2.03479 35.7082 1.33042 35.1889 0.811089C34.6696 0.291757 33.9652 0 33.2308 0H12.4615ZM18.288 10.7889C18.1593 10.6602 18.0064 10.5581 17.8382 10.4884C17.67 10.4187 17.4898 10.3829 17.3077 10.3829C17.1256 10.3829 16.9454 10.4187 16.7772 10.4884C16.609 10.5581 16.4561 10.6602 16.3274 10.7889C16.1986 10.9177 16.0965 11.0705 16.0269 11.2387C15.9572 11.4069 15.9213 11.5872 15.9213 11.7692C15.9213 11.9513 15.9572 12.1316 16.0269 12.2998C16.0965 12.468 16.1986 12.6208 16.3274 12.7495L20.196 16.6154H1.38462C1.01739 16.6154 0.66521 16.7613 0.405544 17.0209C0.145879 17.2806 0 17.6328 0 18C0 18.3672 0.145879 18.7194 0.405544 18.9791C0.66521 19.2387 1.01739 19.3846 1.38462 19.3846H20.196L16.3274 23.2505C16.0674 23.5105 15.9213 23.8631 15.9213 24.2308C15.9213 24.5985 16.0674 24.9511 16.3274 25.2111C16.5874 25.4711 16.94 25.6171 17.3077 25.6171C17.6754 25.6171 18.028 25.4711 18.288 25.2111L24.5188 18.9803C24.6477 18.8517 24.75 18.6989 24.8198 18.5307C24.8896 18.3625 24.9256 18.1821 24.9256 18C24.9256 17.8179 24.8896 17.6375 24.8198 17.4693C24.75 17.3011 24.6477 17.1483 24.5188 17.0197L18.288 10.7889Z" fill="#632EBA"/>
</svg>
