<svg width="24" height="24" viewBox="0 0 24 24" fill="none" xmlns="http://www.w3.org/2000/svg">
<g id="Icon / Password Hide">
<path id="Union" fill-rule="evenodd" clip-rule="evenodd" d="M4.26109 8.40649L4.37637 8.58561C5.99303 10.9379 8.79701 12.5051 11.9998 12.5051C15.2019 12.5051 18.0053 10.9387 19.6221 8.58728L19.7335 8.41127L21.0009 9.21354L20.8821 9.40134C20.8772 9.40905 20.8722 9.41666 20.867 9.42418C18.9717 12.1898 15.7016 14.0051 11.9998 14.0051C8.29833 14.0051 5.02847 12.1901 3.13309 9.42489C3.12899 9.41891 3.12498 9.41287 3.12105 9.40677L2.99976 9.21831L4.26109 8.40649ZM11.2503 16L11.2503 19H12.7503V16H11.2503ZM5.51317 14.5047L4.01317 17.0047L5.29941 17.7765L6.79941 15.2765L5.51317 14.5047ZM19.9872 17.0047L18.4872 14.5047L17.2009 15.2765L18.7009 17.7765L19.9872 17.0047Z" fill="#8E9295"/>
</g>
</svg>
