<svg width="18" height="15" viewBox="0 0 18 15" fill="none" xmlns="http://www.w3.org/2000/svg">
<path fill-rule="evenodd" clip-rule="evenodd" d="M9.74977 3L9.74977 0H8.24977L8.24977 3H9.74977ZM15.4869 4.49525L16.9869 1.99525L15.7007 1.2235L14.2007 3.7235L15.4869 4.49525ZM1.01291 1.99525L2.51291 4.49525L3.79915 3.7235L2.29915 1.2235L1.01291 1.99525ZM1.67903 10.0007C3.33005 12.1178 5.98814 13.5009 8.99882 13.5009C12.0098 13.5009 14.6681 12.1176 16.3191 10.0001C15.2829 8.67153 13.8502 7.63201 12.1826 7.04199C12.3862 7.48585 12.4998 7.97967 12.4998 8.5C12.4998 10.433 10.9328 12 8.99979 12C7.06679 12 5.49979 10.433 5.49979 8.5C5.49979 7.9795 5.61341 7.48553 5.8172 7.04155C4.14882 7.63158 2.71544 8.6715 1.67903 10.0007ZM17.8665 9.57578C15.9709 6.81311 12.7009 5.00011 8.9996 5H8.99927C5.29751 5 2.02716 6.81334 0.131546 9.57648C-0.0438618 9.83217 -0.0438475 10.1694 0.131582 10.4251C2.02727 13.1878 5.29738 15.0009 8.99882 15.0009C12.7006 15.0009 15.9709 13.1875 17.8665 10.4244C18.0419 10.1687 18.0419 9.83145 17.8665 9.57578ZM8.99979 10.5C10.1044 10.5 10.9998 9.60457 10.9998 8.5C10.9998 7.39543 10.1044 6.5 8.99979 6.5C7.89522 6.5 6.99979 7.39543 6.99979 8.5C6.99979 9.60457 7.89522 10.5 8.99979 10.5Z" fill="#8E9295"/>
</svg>
