<svg width="100" height="100" viewBox="0 0 100 100" fill="none" xmlns="http://www.w3.org/2000/svg">
<path d="M68.2083 46.8333H53.1667V31.7917C53.1667 31.3562 52.8104 31 52.375 31H47.625C47.1896 31 46.8333 31.3562 46.8333 31.7917V46.8333H31.7917C31.3562 46.8333 31 47.1896 31 47.625V52.375C31 52.8104 31.3562 53.1667 31.7917 53.1667H46.8333V68.2083C46.8333 68.6437 47.1896 69 47.625 69H52.375C52.8104 69 53.1667 68.6437 53.1667 68.2083V53.1667H68.2083C68.6437 53.1667 69 52.8104 69 52.375V47.625C69 47.1896 68.6437 46.8333 68.2083 46.8333Z" fill="#4F92F6"/>
<path d="M50 6C25.7018 6 6 25.7018 6 50C6 74.2982 25.7018 94 50 94C74.2982 94 94 74.2982 94 50C94 25.7018 74.2982 6 50 6ZM50 86.5357C29.8268 86.5357 13.4643 70.1732 13.4643 50C13.4643 29.8268 29.8268 13.4643 50 13.4643C70.1732 13.4643 86.5357 29.8268 86.5357 50C86.5357 70.1732 70.1732 86.5357 50 86.5357Z" fill="#4F92F6"/>
</svg>
