<svg width="68" height="68" viewBox="0 0 68 68" fill="none" xmlns="http://www.w3.org/2000/svg">
<g clip-path="url(#clip0)">
<path d="M34 52.157C35.3875 52.157 36.5122 51.0323 36.5122 49.6448C36.5122 48.2573 35.3875 47.1326 34 47.1326C32.6126 47.1326 31.4878 48.2573 31.4878 49.6448C31.4878 51.0323 32.6126 52.157 34 52.157Z" fill="#F25757"/>
<path d="M34.0001 43.1278C33.4991 43.1278 33.0187 42.9288 32.6644 42.5746C32.3102 42.2203 32.1112 41.7399 32.1112 41.2389V18.5722C32.1112 18.0713 32.3102 17.5908 32.6644 17.2366C33.0187 16.8824 33.4991 16.6833 34.0001 16.6833C34.5011 16.6833 34.9815 16.8824 35.3357 17.2366C35.69 17.5908 35.889 18.0713 35.889 18.5722V41.2389C35.889 41.7399 35.69 42.2203 35.3357 42.5746C34.9815 42.9288 34.5011 43.1278 34.0001 43.1278Z" fill="#F25757"/>
<path d="M28.4711 2.96264C28.9965 2.00259 29.7691 1.20191 30.7083 0.644346C31.6474 0.0867846 32.7185 -0.207175 33.8095 -0.206787C34.9006 -0.206399 35.9715 0.0883222 36.9102 0.646552C37.849 1.20478 38.6211 2.00601 39.1458 2.96644L65.4025 51.4775C65.9061 52.4083 66.16 53.4545 66.1395 54.5135C66.119 55.5725 65.8247 56.608 65.2854 57.5184C64.7462 58.4288 63.9805 59.1828 63.0635 59.7066C62.1465 60.2303 61.1097 60.5058 60.0547 60.506H7.60182C6.53497 60.5299 5.48059 60.2719 4.5444 59.7577C3.60821 59.2435 2.82311 58.4912 2.26782 57.5763C1.71253 56.6614 1.40656 55.616 1.38059 54.5449C1.35462 53.4738 1.60956 52.4147 2.11986 51.4737L28.4711 2.96264ZM5.44306 53.29C5.2483 53.6495 5.15191 54.0544 5.16371 54.4635C5.17551 54.8726 5.29508 55.2712 5.51024 55.6187C5.7254 55.9663 6.02847 56.2504 6.38857 56.4421C6.74868 56.6338 7.15295 56.7263 7.56023 56.7101H60.0547C60.4545 56.7099 60.8473 56.6053 61.1947 56.4067C61.5421 56.2081 61.8321 55.9222 62.0362 55.5772C62.2404 55.2321 62.3517 54.8396 62.3592 54.4384C62.3668 54.0371 62.2703 53.6407 62.0793 53.2881L35.8282 4.78655C35.6293 4.42362 35.337 4.12094 34.9818 3.91007C34.6266 3.6992 34.2216 3.58786 33.809 3.58766C33.3964 3.58747 32.9912 3.69843 32.6359 3.90897C32.2805 4.1195 31.9879 4.42191 31.7886 4.78465L5.44117 53.29H5.44306Z" fill="#F25757"/>
</g>
<defs>
<clipPath id="clip0">
<rect width="68" height="68" fill="white"/>
</clipPath>
</defs>
</svg>
