<svg width="24" height="24" viewBox="0 0 24 24" fill="none" xmlns="http://www.w3.org/2000/svg">
<path d="M16.3695 11.24H12.7595V7.63C12.7595 7.5255 12.674 7.44 12.5695 7.44H11.4295C11.325 7.44 11.2395 7.5255 11.2395 7.63V11.24H7.62945C7.52495 11.24 7.43945 11.3255 7.43945 11.43V12.57C7.43945 12.6745 7.52495 12.76 7.62945 12.76H11.2395V16.37C11.2395 16.4745 11.325 16.56 11.4295 16.56H12.5695C12.674 16.56 12.7595 16.4745 12.7595 16.37V12.76H16.3695C16.474 12.76 16.5595 12.6745 16.5595 12.57V11.43C16.5595 11.3255 16.474 11.24 16.3695 11.24Z" fill="#4F92F6"/>
<path d="M11.9995 1.44C6.16788 1.44 1.43945 6.16843 1.43945 12C1.43945 17.8316 6.16788 22.56 11.9995 22.56C17.831 22.56 22.5595 17.8316 22.5595 12C22.5595 6.16843 17.831 1.44 11.9995 1.44ZM11.9995 20.7686C7.15788 20.7686 3.23088 16.8416 3.23088 12C3.23088 7.15843 7.15788 3.23143 11.9995 3.23143C16.841 3.23143 20.768 7.15843 20.768 12C20.768 16.8416 16.841 20.7686 11.9995 20.7686Z" fill="#4F92F6"/>
</svg>
