<svg width="24" height="24" viewBox="0 0 24 24" fill="none" xmlns="http://www.w3.org/2000/svg">
<path d="M16.8125 10.75H13.25V7.1875C13.25 7.08437 13.1656 7 13.0625 7H11.9375C11.8344 7 11.75 7.08437 11.75 7.1875V10.75H8.1875C8.08437 10.75 8 10.8344 8 10.9375V12.0625C8 12.1656 8.08437 12.25 8.1875 12.25H11.75V15.8125C11.75 15.9156 11.8344 16 11.9375 16H13.0625C13.1656 16 13.25 15.9156 13.25 15.8125V12.25H16.8125C16.9156 12.25 17 12.1656 17 12.0625V10.9375C17 10.8344 16.9156 10.75 16.8125 10.75Z" fill="#101010"/>
<path d="M12.5 1C6.70156 1 2 5.70156 2 11.5C2 17.2984 6.70156 22 12.5 22C18.2984 22 23 17.2984 23 11.5C23 5.70156 18.2984 1 12.5 1ZM12.5 20.2188C7.68594 20.2188 3.78125 16.3141 3.78125 11.5C3.78125 6.68594 7.68594 2.78125 12.5 2.78125C17.3141 2.78125 21.2188 6.68594 21.2188 11.5C21.2188 16.3141 17.3141 20.2188 12.5 20.2188Z" fill="#101010"/>
</svg>
