<svg width="25" height="15" viewBox="0 0 25 15" fill="none" xmlns="http://www.w3.org/2000/svg">
<path d="M0.000611842 12.5113C-0.000296056 12.1911 0.0585781 11.8748 0.172905 11.5855C0.287231 11.2962 0.454105 11.0413 0.661266 10.8396L11.3745 0.487745C11.694 0.172513 12.0948 0.000183105 12.5084 0.000183105C12.9219 0.000183105 13.3227 0.172513 13.6422 0.487745L24.3555 11.204C24.7201 11.5678 24.9494 12.0905 24.9929 12.6572C25.0365 13.224 24.8907 13.7882 24.5876 14.2259C24.2845 14.6636 23.849 14.9389 23.3768 14.9911C22.9047 15.0434 22.4346 14.8683 22.07 14.5046L12.4994 4.92426L2.92891 14.1831C2.66682 14.4451 2.34767 14.6116 2.00922 14.6628C1.67077 14.714 1.32719 14.6477 1.01913 14.4719C0.711076 14.296 0.451438 14.0179 0.270937 13.6704C0.0904346 13.323 -0.00337261 12.9208 0.000611842 12.5113Z" fill="#632EBA"/>
</svg>
