<svg width="25" height="15" viewBox="0 0 25 15" fill="none" xmlns="http://www.w3.org/2000/svg">
<path d="M24.9999 2.48884C25.0008 2.80903 24.9419 3.1254 24.8276 3.41469C24.7133 3.70399 24.5464 3.95886 24.3392 4.16057L13.626 14.5124C13.3065 14.8277 12.9057 15 12.4921 15C12.0786 15 11.6778 14.8277 11.3583 14.5124L0.645033 3.79622C0.280394 3.43243 0.0510867 2.90967 0.00755554 2.34294C-0.0359756 1.77621 0.109836 1.21194 0.412911 0.77425C0.715987 0.336564 1.1515 0.0613203 1.62365 0.00906849C2.09579 -0.0431833 2.56589 0.131838 2.93053 0.495628L12.5011 10.0759L22.0716 0.817116C22.3337 0.555034 22.6528 0.388553 22.9913 0.337373C23.3297 0.286193 23.6733 0.352455 23.9814 0.528321C24.2894 0.704187 24.5491 0.982294 24.7296 1.32974C24.9101 1.67718 25.0039 2.07941 24.9999 2.48884Z" fill="#632EBA"/>
</svg>
