<svg width="30" height="30" viewBox="0 0 30 30" fill="none" xmlns="http://www.w3.org/2000/svg">
<path d="M26.4193 8.30353C26.047 7.46138 25.51 6.69823 24.8386 6.05681C24.1667 5.41347 23.3745 4.90221 22.505 4.55085C21.6035 4.18506 20.6365 3.99782 19.6602 4.00002C18.2906 4.00002 16.9544 4.36633 15.7931 5.05826C15.5153 5.22378 15.2514 5.40558 15.0014 5.60366C14.7513 5.40558 14.4874 5.22378 14.2096 5.05826C13.0484 4.36633 11.7121 4.00002 10.3425 4.00002C9.35628 4.00002 8.40062 4.18453 7.49774 4.55085C6.62542 4.90359 5.83921 5.41101 5.16414 6.05681C4.49183 6.69751 3.95477 7.46084 3.5834 8.30353C3.19724 9.17997 3 10.1107 3 11.0685C3 11.9721 3.18891 12.9137 3.56395 13.8715C3.87788 14.672 4.32793 15.5023 4.903 16.3407C5.81421 17.6676 7.06713 19.0515 8.62287 20.4543C11.2009 22.7797 13.754 24.3861 13.8624 24.4512L14.5208 24.8637C14.8125 25.0455 15.1875 25.0455 15.4792 24.8637L16.1376 24.4512C16.246 24.3834 18.7963 22.7797 21.3771 20.4543C22.9328 19.0515 24.1858 17.6676 25.097 16.3407C25.672 15.5023 26.1249 14.672 26.436 13.8715C26.8111 12.9137 27 11.9721 27 11.0685C27.0028 10.1107 26.8055 9.17997 26.4193 8.30353Z" fill="#FDFDFD"/>
<line x1="2.35355" y1="2.64645" x2="23.5668" y2="23.8596" stroke="#F4F4F4"/>
</svg>
